
<svg width="inherit" height="auto" viewBox="0 0 110 30" version="1.1" xmlns="http://www.w3.org/2000/svg" xmlns:xlink="http://www.w3.org/1999/xlink">
    <g id="Page-1" stroke="none" stroke-width="1" fill="none" fill-rule="evenodd">
        <g id="Artboard" fill="#F2B02A">
            <g id="Group">
                <g id="Group-Copy-2">
                    <path d="M17,16.940949 C15.7789611,15.3506658 14.6169843,16.9172601 16.2294046,18.1236047 C16.1604565,18.7337049 15.7558939,19.0251227 15.0162237,18.9983051 C15.7619776,18.1638311 15.0010146,17.6236801 15,16.9912319 C14.9989867,16.2432446 16.1934096,15.2206005 17,16.940949" id="Fill-2"></path>
                    <path d="M5.1857629,14.4447223 C4.69370391,14.0599699 4.26914351,13.5463331 4,13.0106453 C6,13.3170785 6.18491208,13.274117 7.84429949,13 C8.40300624,13.6638119 9.121384,14.0633917 10,14.1987393 C8.76460579,14.4477638 7.86500284,14.3979589 7.30147476,14.0489444 C6.88542258,14.1010305 6.59812819,14.2614707 6.43902439,14.5306453 C7.28133863,14.7218809 7.88825865,15.0108253 8.25950085,15.3974786 C7.23085649,15.922141 6.36046512,16.104252 5.64861032,15.9434316 C5.40640953,15.544232 5.25212706,15.0446623 5.1857629,14.4447223" id="Fill-3"></path>
                    <path d="M2.02077258,13 C2.44371661,13.1364136 2.54965025,13.2979727 2.9106679,13.0304888 C2.80895052,13.7421028 2.94782373,14.190319 3,14.761119 C2.83793733,14.8585573 2.69458434,14.9380795 2.56967751,15 C2.33066802,14.4081408 1.90060904,13.6748389 2.02077258,13" id="Fill-4"></path>
                    <path d="M6.95781455,23.4446022 C6.05908825,22.8860026 5.16960565,22.556103 4.28877038,22.455475 C3.72550098,22.3908672 3.1655116,22.4203124 2.60939861,22.5432386 C1.83173497,21.7310679 2.34878587,20.2382291 3.80601063,21.0366778 C3.97090633,21.1267284 4.13192564,21.205344 4.28877038,21.2719528 C5.70096937,21.8708608 6.79768979,21.5112301 7.57922981,20.1933467 C6.39991245,20.5464023 5.49790613,20.3931733 4.87291266,19.733374 C4.71517337,19.5669948 4.51211013,19.4595058 4.28877038,19.3900382 C3.95778624,19.2868374 3.58207452,19.2668261 3.2433376,19.260251 C2.38277884,19.2436703 2.16987553,19.4523589 1.95249946,19.8125613 C1.77180001,20.1118724 1.42292483,20.2456618 0.89692842,20.2093557 C0.960441592,20.6893397 1.30186217,21.0058033 1.92119015,21.1590322 C2.00050707,22.2442134 1.9146301,23.2030379 1.66385743,24.0360774 C1.20644332,25.5535015 0.419834166,26.8902526 1.67757389,28.486864 C1.4587069,27.2610324 1.55949306,26.3062102 1.97963419,25.6218256 C2.00497982,27.8436455 2.05686382,29.5417425 4.28877038,29.9210985 C4.56906325,29.9685538 4.88364728,29.995426 5.23669703,30 C9.31794018,25.5878065 16.4588484,28.096073 14.5668715,20.4477754 C14.1440467,18.7388151 13.7057164,17.1176185 15.0004309,15.548451 C16.171101,14.1299397 17.9023567,14.6696715 17.8904294,16.5876064 C17.8805893,18.0890215 17.0349397,19.2531041 15.3528843,20.0804261 C16.1040096,20.115017 16.7197593,19.9486378 17.1998354,19.5812885 C17.1604752,19.9434921 16.7126029,20.4586387 15.8565169,21.1267284 C19.076605,19.847724 19.5891831,17.2997208 18.5428558,14.2857415 C19.1320672,15.0021441 19.5966377,15.9463889 19.9365674,17.1184761 C20.1226341,15.6802394 19.7141222,14.2099847 18.7107333,12.7079978 C19.3062066,13.1631107 20.1360524,13.9755672 20.7085655,15.1459391 C20.5734882,11.9933105 19.6720782,9.15342907 16.9141753,8.17602272 C18.9865534,8.45189202 20.6817289,9.43415824 22,11.1233931 C20.4315526,4.06914361 14.8265897,7.52051153 10.2843542,4.34615641 C14.3700701,5.91303685 17.1100821,4.34644229 20.7959334,6.83155297 C19.361967,4.89503626 16.8968806,3.87646392 13.4009724,3.77583595 C14.909783,3.51683327 16.3831097,3.5757235 17.8209525,3.95222077 C15.0570859,2.61203915 12.3322813,2.40363633 9.64713522,3.32758407 C11.1994806,2.01198769 13.3809941,1.64063617 16.1919738,2.21381538 C12.5022461,0.124069715 4.90958928,3.01397928 4.84458519,6.51909168 C3.76933401,1.54258107 10.2560268,2.64720176 12.6644582,0 C10.361882,1.69552415 6.31731551,0.734126795 4.28877038,2.63862551 C3.69031528,3.20065561 3.26719231,4.0122545 3.11631125,5.21521617 C2.78830895,4.038555 3.17922806,2.77813247 4.28877038,1.4339486 C4.38389105,1.31874101 4.48408084,1.20296166 4.58993613,1.08661057 C4.48646631,1.16408268 4.38597833,1.24212653 4.28877038,1.32102801 C1.88272442,3.27155259 1.36925173,5.61086706 2.74835231,8.33897142 C1.16111936,7.35727695 0.396277637,6.12601366 0.453528948,4.6448957 C-0.646769675,7.56710914 0.254938465,9.404999 3.15924973,10.1588512 C2.042551,9.62883906 1.32482233,8.89556989 1.00606373,7.95875778 C1.9035973,8.69660095 2.99793224,9.21546393 4.28877038,9.51506084 C4.4477024,9.55193871 4.60931808,9.58538607 4.77421378,9.61568882 C4.59858346,9.4847581 4.43696778,9.34267827 4.28877038,9.18916343 C3.62739847,8.50363538 3.23916302,7.59312376 3.12376585,6.45791445 C3.45117178,7.00993892 3.83940723,7.49392516 4.28877038,7.91015904 C5.14962732,8.70717832 6.23471857,9.25520054 7.54374593,9.55451158 C6.7529622,8.26264282 6.6584379,6.69633413 7.26017303,4.85529964 C6.48936763,10.5639359 13.1788254,8.80780629 17.8140943,10.5596478 C14.2674949,9.84810513 11.689695,9.74862065 10.081291,10.2614803 C10.3806676,11.1611286 10.8953331,12.0733555 11.6258836,12.997875 C11.2612047,12.8921013 10.8693911,12.6453912 10.4507409,12.257459 C10.8517982,13.8094739 11.7582773,14.8989432 13.1698799,15.5252952 C13.3455102,16.8151628 13.1773345,18.0064036 12.6662473,19.0987317 C11.407613,19.4289172 10.1764117,20.3946027 8.97264322,21.9957881 C9.40441352,22.2673693 9.88926055,22.8980094 10.426588,23.8874225 C9.25979432,22.9411765 7.81270781,22.2890958 6.08503025,21.9314663 C6.49115673,22.4703405 6.78218422,22.9749097 6.95781455,23.4446022" id="Fill-5"></path>
                </g>
                <path d="M40.2028559,18 L38.850317,18 C38.7377303,18 38.6428678,17.9586767 38.5657297,17.8757619 C38.4885915,17.792847 38.4501473,17.6941005 38.4501473,17.5795224 C38.4501473,17.4582359 38.4885915,17.3562694 38.5657297,17.2733545 C38.6428678,17.1904397 38.7377303,17.1491164 38.850317,17.1491164 L40.2028559,17.1491164 C40.3391582,17.1491164 40.4679714,17.1204048 40.5897948,17.0629816 C40.7113685,17.0055583 40.8182136,16.9290835 40.9100804,16.8335569 C41.0019472,16.7377621 41.0745918,16.6245256 41.1280144,16.4938475 C41.1814369,16.3631694 41.2081482,16.2212213 41.2081482,16.0682716 C41.2081482,15.9217618 41.1814369,15.7830337 41.1280144,15.6523556 C41.0745918,15.5216775 41.0019472,15.406831 40.9100804,15.3080845 C40.8182136,15.209338 40.7113685,15.1309848 40.5897948,15.0735615 C40.4679714,15.0164066 40.3391582,14.987695 40.2028559,14.987695 L39.8825703,14.987695 C39.7697339,14.987695 39.6748714,14.9463718 39.5977333,14.8634569 C39.5205951,14.780542 39.4821509,14.6817955 39.4821509,14.5669491 C39.4821509,14.4459309 39.5205951,14.3436961 39.5977333,14.2607812 C39.6748714,14.1778664 39.7697339,14.1365431 39.8825703,14.1365431 C40.0308553,14.1365431 40.1686554,14.1064898 40.2962205,14.0458466 C40.4237855,13.9852034 40.5348744,13.9038985 40.6299865,13.801932 C40.7245993,13.6999655 40.8002397,13.580289 40.8566578,13.4434393 C40.9128264,13.3063212 40.9410355,13.1579331 40.9410355,12.9985433 C40.9410355,12.8391536 40.9128264,12.6891555 40.8566578,12.5493541 C40.8002397,12.409016 40.7245993,12.2877295 40.6299865,12.185763 C40.5348744,12.0835282 40.4237855,12.0022233 40.2962205,11.9418484 C40.1686554,11.8812052 40.0308553,11.8508836 39.8825703,11.8508836 L37.7916022,11.8508836 L37.7916022,17.5124391 C37.7916022,17.6337256 37.7531579,17.7354238 37.6760198,17.8183386 C37.5988816,17.9012535 37.5040192,17.9425768 37.3911828,17.9425768 C37.2845873,17.9425768 37.1927206,17.9012535 37.1155824,17.8183386 C37.0384443,17.7354238 37,17.6337256 37,17.5124391 L37,11.420746 C37,11.3058995 37.0384443,11.207153 37.1155824,11.1242381 C37.1927206,11.0413233 37.2845873,11 37.3911828,11 L39.8825703,11 C40.1374507,11 40.3776025,11.0523249 40.6032753,11.1577797 C40.8284487,11.2629662 41.024165,11.4049143 41.1901742,11.5833557 C41.3564332,11.7617971 41.4884917,11.9735117 41.5861002,12.2193046 C41.6839583,12.4648292 41.733137,12.7245755 41.733137,12.9985433 C41.733137,13.2853912 41.6824604,13.5515774 41.5816067,13.797102 C41.4807529,14.0426266 41.3414549,14.2578296 41.163463,14.4424426 C41.4128514,14.6082723 41.6143093,14.8347453 41.7685856,15.1215931 C41.9228619,15.408441 42,15.7240005 42,16.0682716 C42,16.3360678 41.9525688,16.5880324 41.8574567,16.8236286 C41.7625942,17.0597616 41.6335314,17.2639629 41.4705177,17.4359643 C41.3075041,17.608234 41.1177792,17.7450838 40.9010934,17.8470503 C40.6846572,17.9492851 40.451745,18 40.2028559,18 Z M53.565406,18 C53.3786092,18 53.2126881,17.9745541 53.0676427,17.9241925 C52.9228684,17.874096 52.7699607,17.757204 52.6086485,17.5748419 C52.537888,17.4990344 52.4429985,17.3749858 52.3237088,17.2016358 C52.2046903,17.0285509 52.0612715,16.8220682 51.8937237,16.5829831 C51.8037142,16.457079 51.721567,16.3436329 51.6472821,16.2429096 C51.5732683,16.1421864 51.5201301,16.0666439 51.4878677,16.0160173 L51.4493697,15.9592942 C51.3655958,15.8522095 51.2915819,15.7753417 51.2270571,15.7281609 C51.1628033,15.6807149 51.056527,15.6571245 50.9082283,15.6571245 C50.7859564,15.6571245 50.6813068,15.616305 50.5942795,15.5344012 C50.5072523,15.4524973 50.4638742,15.351774 50.4638742,15.2319664 C50.4638742,15.1124238 50.5072523,15.0101102 50.5942795,14.9250256 C50.6813068,14.840206 50.7859564,14.7975311 50.9082283,14.7975311 C51.1145452,14.7975311 51.3092043,14.7583021 51.4927477,14.6795789 C51.6762912,14.6005907 51.8359767,14.4950964 51.9709909,14.3630959 C52.1062763,14.2305653 52.2141792,14.0765648 52.2949709,13.9000341 C52.3752203,13.7237684 52.4156161,13.5350449 52.4156161,13.3330683 C52.4156161,13.1316218 52.3752203,12.9413079 52.2949709,12.7615964 C52.2141792,12.58215 52.1062763,12.4265591 51.9709909,12.2942936 C51.8359767,12.161763 51.6762912,12.0562687 51.4927477,11.9778106 C51.3092043,11.8990874 51.1145452,11.8595933 50.9082283,11.8595933 L48.8792192,11.8595933 L48.8792192,17.5748419 C48.8792192,17.6943845 48.8371967,17.7953728 48.7536939,17.8770116 C48.66992,17.9589155 48.566626,18 48.4443541,18 C48.3220821,18 48.2171614,17.9589155 48.1304053,17.8770116 C48.0433781,17.7953728 48,17.6943845 48,17.5748419 L48,11.4251581 C48,11.3053504 48.0433781,11.2046272 48.1304053,11.1229884 C48.2171614,11.0410845 48.3220821,11 48.4443541,11 L50.9082283,11 C51.2368171,11 51.5458859,11.0612291 51.8359767,11.1842175 C52.1257964,11.3069408 52.3787447,11.4739293 52.5942795,11.684653 C52.8100854,11.8959067 52.9806154,12.1432088 53.1064118,12.4265591 C53.2319371,12.7099095 53.2948353,13.0120792 53.2948353,13.3330683 C53.2948353,13.7677686 53.183679,14.1629747 52.9616375,14.5186868 C52.7393249,14.8746639 52.4446252,15.1535083 52.0772672,15.3549548 C52.0967873,15.3801356 52.1192897,15.4116778 52.1450454,15.4493165 L52.1838146,15.4967625 C52.2285482,15.5532205 52.2898197,15.6351244 52.367358,15.7422091 C52.4446252,15.8490287 52.5283991,15.9688364 52.6186797,16.1011019 C52.6764267,16.1830058 52.7376983,16.2710061 52.801952,16.3656329 C52.8664769,16.4602598 52.9293751,16.5498504 52.9906466,16.6349351 C53.051647,16.7200197 53.1064118,16.7971525 53.1546699,16.8663334 C53.2031991,16.9355144 53.2433238,16.985876 53.2753152,17.0174183 C53.3333333,17.0805029 53.3737292,17.1168162 53.3962315,17.1260934 C53.4187339,17.1356356 53.4751254,17.1404067 53.565406,17.1404067 C53.687949,17.1404067 53.7907008,17.1828165 53.8744747,17.267636 C53.9582486,17.3527207 54,17.4552993 54,17.5748419 C54,17.6943845 53.9582486,17.7953728 53.8744747,17.8770116 C53.7907008,17.9589155 53.687949,18 53.565406,18 Z M62.4953487,11 C62.9750921,11 63.4282568,11.0918181 63.8545772,11.2751882 C64.2808976,11.4585583 64.6535293,11.7084632 64.9722064,12.0243708 C65.2911493,12.3405444 65.5423169,12.7120751 65.7254433,13.1389628 C65.9083039,13.5658505 66,14.0196183 66,14.5 C66,15.062885 65.8801306,15.5813246 65.6401261,16.0555851 C65.4001215,16.5298456 65.0750655,16.9282564 64.6644265,17.2505513 C64.6644265,17.2505513 64.6580476,17.2572048 64.6455557,17.2697133 C64.3422941,17.4972626 64.0108592,17.6758421 63.6509853,17.8054521 C63.2908456,17.935062 62.9059878,18 62.4953487,18 C62.0153396,18 61.5637696,17.9081819 61.1409044,17.7248118 C60.7177735,17.5417079 60.3467365,17.2918029 60.0275278,16.9756292 C59.7088507,16.6594556 59.4576831,16.2895217 59.2745567,15.8658277 C59.0916961,15.4421337 59,14.9870352 59,14.5 C59,13.9687856 59.1073775,13.4772261 59.3221324,13.0250551 C59.5366215,12.5728842 59.8305806,12.1859174 60.2029464,11.8630903 L60.2409538,11.8252985 C60.2470669,11.8252985 60.2566352,11.8189111 60.2693929,11.8061364 C60.5723887,11.5533039 60.9133918,11.3555623 61.2924023,11.2134438 C61.6711471,11.0710592 62.071952,11 62.4953487,11 Z M62.6828288,17 C62.9244575,17 63.1551031,16.9728485 63.3747656,16.9180606 C63.5944281,16.8632727 63.8028395,16.7869091 64,16.6889697 L60.6493437,13 C60.4452183,13.2128485 60.2863649,13.4535758 60.1717118,13.7214545 C60.0573265,13.9890909 60,14.2727273 60,14.5723636 C60,14.9064242 60.069917,15.2203636 60.2100188,15.5141818 C60.3498527,15.8077576 60.542727,16.0654545 60.7875703,16.2875152 C61.0326815,16.5090909 61.3174391,16.6833939 61.6421109,16.8101818 C61.9667827,16.9367273 62.3136887,17 62.6828288,17 Z M64.3068279,16 C64.5255307,15.7848335 64.6956036,15.5398821 64.8173096,15.2653839 C64.9392784,14.9906475 65,14.6978019 65,14.3863704 C65,14.0580211 64.9313925,13.749449 64.7939147,13.4606541 C64.6566997,13.1718592 64.4677006,12.9185679 64.2271801,12.7007804 C63.9869225,12.4827545 63.7072353,12.3114315 63.3886443,12.1870495 C63.0700532,12.0624293 62.7299073,12 62.3676809,12 C62.1176973,12 61.8774397,12.029785 61.6463823,12.0893549 C61.4150621,12.1486865 61.1997766,12.2349437 61,12.3483648 L64.3068279,16 Z M76.6165423,18 C76.5118072,18 76.4229781,17.9598273 76.3505445,17.8792212 C76.2778661,17.798615 76.2414046,17.702618 76.2414046,17.5912301 L76.2414046,13.3796221 L74.4885599,17.7490513 C74.4594396,17.8233968 74.4144133,17.8823515 74.3532363,17.9256545 C74.2923039,17.9689575 74.2237856,17.9940002 74.1484155,18 C74.0728007,18 74.0030589,17.9786094 73.93919,17.9350455 C73.8750765,17.8914816 73.8285819,17.8356573 73.7994616,17.7675725 L71.7585954,13.1936279 L71.7585954,17.6003603 C71.7585954,17.7117481 71.7223786,17.8064408 71.6497002,17.8839167 C71.5770219,17.9613925 71.4884375,18 71.3837024,18 C71.279212,18 71.1891594,17.9613925 71.1135446,17.8839167 C71.0379298,17.8064408 71,17.7117481 71,17.6003603 L71,11.3994228 C71,11.3065562 71.0274073,11.2228196 71.0827114,11.1482133 C71.1382601,11.0738677 71.2092255,11.0274344 71.2965863,11.0089132 C71.3837024,10.9901312 71.4664138,11.0010874 71.5449651,11.0412601 C71.6235165,11.0816936 71.6829805,11.1453438 71.7238468,11.2319498 L74.1222317,16.6054347 L76.2675884,11.2413408 C76.3025817,11.1544739 76.3605775,11.0895194 76.4420653,11.0459556 C76.5233085,11.0026526 76.6077328,10.9901312 76.6950936,11.0089132 C76.7822097,11.0274344 76.854888,11.0738677 76.9128839,11.1482133 C76.9711244,11.2228196 77,11.3065562 77,11.3994228 L77,17.5912301 C77,17.702618 76.9623149,17.798615 76.8867001,17.8792212 C76.8110853,17.9598273 76.7212774,18 76.6165423,18 Z M88.9594987,17.4028972 C89.0066792,17.5107992 89.0126388,17.6173624 88.9773776,17.7225869 C88.9421164,17.8275436 88.8740771,17.905458 88.7737564,17.9563299 C88.6734357,18.0072017 88.5733634,18.0136277 88.4727944,17.9756076 C88.3724737,17.9370521 88.2989714,17.8639572 88.2517909,17.7557875 L87.5522776,16.1335096 L85.7738204,16.1335096 C85.6615804,16.1335096 85.5687093,16.093883 85.4949587,16.0143622 C85.4212081,15.9348414 85.3842086,15.8347041 85.3842086,15.7139503 C85.3842086,15.5993547 85.4212081,15.5005561 85.4949587,15.4178224 C85.5687093,15.3353563 85.6615804,15.2938556 85.7738204,15.2938556 L87.1807931,15.2938556 L85.941932,12.4313744 L83.7559841,17.7464164 C83.7204745,17.8291501 83.6703142,17.8912674 83.6055031,17.9325004 C83.5406919,17.9740011 83.4699211,17.9943499 83.3931907,17.9943499 C83.3400506,17.9943499 83.2869104,17.9849788 83.2337702,17.965701 C83.1334495,17.9150968 83.0641687,17.835576 83.0256793,17.7274063 C82.9874383,17.6189689 82.991908,17.5107992 83.0390885,17.4028972 L85.5788903,11.2479335 C85.6084402,11.1716257 85.6556208,11.1111149 85.7206802,11.0669367 C85.7854913,11.022223 85.8562621,11 85.9329925,11 C86.0094746,11 86.0804937,11.0206165 86.1455532,11.0618495 C86.2103643,11.1033503 86.2575448,11.1622546 86.2870947,11.2385624 L88.9594987,17.4028972 Z M98.6291907,18 C98.5029268,18 98.4052054,17.9460202 98.3362682,17.8380607 L94.7413768,12.6191258 L94.7413768,17.5903417 C94.7413768,17.7047146 94.7055779,17.8017179 94.6337381,17.8810842 C94.5616564,17.9601832 94.4740941,18 94.3708093,18 C94.2730879,18 94.1869769,17.9601832 94.1122345,17.8810842 C94.0374921,17.8017179 94,17.7047146 94,17.5903417 L94,11.4096583 C94,11.3206719 94.0232209,11.2413056 94.0689372,11.1715595 C94.1148953,11.1015461 94.1782691,11.0539798 94.2588167,11.0285932 C94.3335591,10.9970605 94.4080596,10.9938538 94.482802,11.0192403 C94.5575444,11.0443596 94.6209182,11.0921932 94.6724396,11.1619393 L98.2586232,16.3904944 L98.2586232,11.4096583 C98.2586232,11.3014316 98.294664,11.2062989 98.3662619,11.1237259 C98.4381017,11.0411529 98.525664,11 98.6291907,11 C98.7327173,11 98.8205215,11.0411529 98.8923613,11.1237259 C98.9639592,11.2062989 99,11.3014316 99,11.4096583 L99,17.5903417 C99,17.6793281 98.9770209,17.7586944 98.9310628,17.8287078 C98.8851047,17.8984539 98.8246335,17.949227 98.7498912,17.9810269 C98.6925645,17.9935866 98.6521697,18 98.6291907,18 Z M109.575877,17.1585081 C109.691572,17.1585081 109.791318,17.1982213 109.874845,17.2781845 C109.958372,17.3578794 110,17.4582359 110,17.5795224 C110,17.6941005 109.958372,17.792847 109.874845,17.8757619 C109.791318,17.9586767 109.691572,18 109.575877,18 L105.428718,18 C105.311672,18 105.210575,17.9586767 105.127048,17.8757619 C105.041899,17.792847 105,17.6941005 105,17.5795224 L105,11.420746 C105,11.3058995 105.041899,11.207153 105.127048,11.1242381 C105.210575,11.0413233 105.311672,11 105.428718,11 L109.575877,11 C109.691572,11 109.791318,11.0413233 109.874845,11.1242381 C109.958372,11.207153 110,11.3058995 110,11.420746 C110,11.5417641 109.958372,11.6421206 109.874845,11.7220838 C109.791318,11.8015103 109.691572,11.8414919 109.575877,11.8414919 L105.857436,11.8414919 L105.857436,14.0791199 L108.333514,14.0791199 C108.449208,14.0791199 108.548413,14.1207115 108.63194,14.2036263 C108.715467,14.2865412 108.757096,14.3852877 108.757096,14.4998658 C108.757096,14.6147123 108.715467,14.7137271 108.63194,14.796642 C108.548413,14.8795569 108.449208,14.9206118 108.333514,14.9206118 L105.857436,14.9206118 L105.857436,17.1585081 L109.575877,17.1585081 L109.575877,17.1585081 Z" id="Fill-11-Copy-2"></path>
            </g>
        </g>
    </g>
</svg>
