
<svg width="inherit" height="auto" viewBox="0 0 38 54" version="1.1" xmlns="http://www.w3.org/2000/svg" xmlns:xlink="http://www.w3.org/1999/xlink">
    <g id="Page-1" stroke="none" stroke-width="1" fill="#F2B02A" fill-rule="evenodd">
        <g id="Artboard" transform="translate(-18.000000, 0.000000)" fill="inherit">
            <g id="Group-Copy" transform="translate(18.000000, 0.000000)">
                <path d="M30,29.8818979 C27.5579222,26.7013317 25.2339686,29.8345202 28.4588091,32.2472094 C28.3209131,33.4674098 27.5117879,34.0502454 26.0324474,33.9966102 C27.5239552,32.3276622 26.0020292,31.2473602 26,29.9824639 C25.9979734,28.4864893 28.3868193,26.441201 30,29.8818979" id="Fill-2"></path>
                <path d="M8.17389866,26.4078705 C7.27179051,25.7666166 6.49342976,24.9105552 6,24.0177422 C9.66666667,24.5284642 10.0056721,24.4568617 13.0478824,24 C14.0721781,25.1063531 15.389204,25.7723194 17,25.9978989 C14.7351106,26.4129397 13.0858385,26.3299315 12.0527037,25.7482407 C11.2899414,25.8350508 10.763235,26.1024511 10.4715447,26.5510754 C12.0157875,26.8698015 13.1284742,27.3513756 13.8090849,27.9957977 C11.9232369,28.8702349 10.3275194,29.1737533 9.02245226,28.9057193 C8.57841747,28.2403867 8.29556627,27.4077704 8.17389866,26.4078705" id="Fill-3"></path>
                <path d="M3.04154516,24 C3.88743322,24.2728273 4.09930051,24.5959453 4.82133579,24.0609775 C4.61790103,25.4842056 4.89564745,26.3806381 5,27.5222379 C4.67587467,27.7171146 4.38916869,27.876159 4.13935502,28 C3.66133603,26.8162816 2.80121809,25.3496778 3.04154516,24" id="Fill-4"></path>
                <path d="M12.0180433,42.200284 C10.4656979,41.1948047 8.92931884,40.6009853 7.40787611,40.419855 C6.43495623,40.303561 5.46770185,40.3565623 4.50714305,40.5778294 C3.16390586,39.1159223 4.05699378,36.4288124 6.57401836,37.86602 C6.85883821,38.028111 7.13696248,38.1696191 7.40787611,38.2895151 C9.84712891,39.3675494 11.7414642,38.7202142 13.0913969,36.3480241 C11.0543942,36.9835241 9.49638331,36.707712 8.41684914,35.5200732 C8.14439037,35.2205906 7.79364477,35.0271105 7.40787611,34.9020688 C6.83617624,34.7163073 6.18721962,34.680287 5.60212858,34.6684518 C4.1157089,34.6386065 3.74796682,35.0142461 3.37249906,35.6626104 C3.06038183,36.2013703 2.45777926,36.4421913 1.54924,36.3768403 C1.65894457,37.2408115 2.24867102,37.8104459 3.31841934,38.086258 C3.4554213,40.0395841 3.30708835,41.7654682 2.87393557,43.2649393 C2.08385664,45.9963027 0.725168105,48.4024547 2.89762763,51.2763553 C2.51958465,49.0698583 2.69366984,47.3511783 3.41936815,46.1192861 C3.46314697,50.1185619 3.55276479,53.1751365 7.40787611,53.8579773 C7.89201835,53.9433968 8.43539075,53.9917668 9.04520395,54 C16.094624,46.0580517 28.42892,50.5729315 25.1609599,36.8059957 C24.4306262,33.7298673 23.6735101,30.8117132 25.9098352,27.9872119 C27.9319016,25.4338914 30.9222525,26.4054088 30.9016507,29.8576915 C30.8846542,32.5602386 29.4239868,34.6555874 26.5186184,36.1447671 C27.8160165,36.2070306 28.8795843,35.9075481 29.7088067,35.2463194 C29.6408207,35.8982857 28.8672232,36.8255496 27.3885292,38.028111 C32.9504995,35.7259031 33.8358617,31.1394974 32.028569,25.7143347 C33.0462978,27.0038593 33.8487378,28.7035001 34.4358891,30.813257 C34.7572771,28.2244309 34.0516655,25.5779724 32.3185393,22.8743961 C33.3470841,23.6935993 34.7804541,25.156021 35.7693404,27.2626905 C35.536025,21.5879589 33.9790442,16.4761723 29.2153936,14.7168409 C32.7949559,15.2134056 35.7229864,16.9814848 38,20.0221077 C35.2908637,7.32445851 25.609564,13.5369207 17.7638846,7.82308154 C24.8210303,10.6434663 29.5537781,7.82359612 35.9202486,12.2967953 C33.4433975,8.81106527 29.185521,6.97763505 23.1471342,6.7965047 C25.7532616,6.33029988 28.2980986,6.4363023 30.7816453,7.11399739 C26.0076938,4.70167046 21.3012132,4.32654539 16.6632336,5.98965133 C19.3445575,3.62157784 23.1126262,2.9531451 27.9679548,3.98486769 C21.5947888,0.223325488 8.48019966,5.42516271 8.36791987,11.734365 C6.51066784,2.77664592 17.7149553,4.76496317 21.8749732,0 C17.8977963,3.05194347 10.9117268,1.32142823 7.40787611,4.74952592 C6.37418093,5.76118009 5.64333217,7.22205811 5.38271943,9.3873891 C4.81617001,7.269399 5.49139392,5.00063845 7.40787611,2.58110748 C7.57217545,2.37373381 7.74523054,2.165331 7.92807149,1.95589903 C7.7493509,2.09534882 7.57578076,2.23582775 7.40787611,2.37785041 C3.25197855,5.88879466 2.36507117,10.0995607 4.74715399,15.0101486 C2.00556981,13.2430985 0.684479555,11.0268246 0.783368182,8.36081227 C-1.11714762,13.6207964 0.440348257,16.9289982 5.45688591,18.2859321 C3.52804263,17.3319103 2.28832948,16.0120258 1.73774644,14.325764 C3.28803169,15.6538817 5.1782466,16.5878351 7.40787611,17.1271095 C7.68239506,17.1934897 7.96154941,17.2536949 8.24636926,17.3082399 C7.9430078,17.0725646 7.66385344,16.8168209 7.40787611,16.5404942 C6.26550645,15.3065437 5.59491795,13.6676228 5.39559556,11.624246 C5.96111489,12.6178901 6.6317034,13.4890653 7.40787611,14.2382863 C8.89481083,15.672921 10.7690593,16.659361 13.0301066,17.1981208 C11.6642074,14.8727571 11.5009382,12.0534014 12.5402989,8.73953936 C11.2089077,19.0150847 22.7634257,15.8540513 30.7697992,19.007366 C24.6438548,17.7265892 20.1912913,17.5475172 17.413139,18.4706645 C17.9302441,20.0900315 18.8192116,21.7320399 20.0810717,23.396175 C19.4511718,23.2057823 18.7744027,22.7617042 18.0512797,22.0634261 C18.7440151,24.857053 20.3097517,26.8180978 22.7479744,27.9455313 C23.0513359,30.2672931 22.7608505,32.4115265 21.8780635,34.377717 C19.7040588,34.972051 17.5774383,36.7102848 15.4982019,39.5924186 C16.243987,40.0812647 17.08145,41.2164168 18.009561,42.9973604 C15.9941902,41.2941176 13.4946771,40.1203724 10.5105068,39.4766393 C11.211998,40.4466129 11.7146818,41.3548375 12.0180433,42.200284" id="Fill-5"></path>
            </g>
        </g>
    </g>
</svg>
